<svg id="HQHlogo" data-name="Layer 1" xmlns="http://www.w3.org/2000/svg" viewBox="0 0 595.28 595.28">
<defs>
<style>.cls-1{fill:#f89c45;}.cls-2{fill:#f37440;}.cls-3{fill:#d35735;}</style></defs>
<title>HQHlogo</title>
<path class="cls-1" d="M185.57,103.49q-1.41,20.22-3.7,65.85-.66,21.71-2.3,60.42H137.64l-.9-27.62q-1.49.5-6,2.38a62.18,62.18,0,0,0-7.56,3.7l-4.27-10.11q-1.32-3.29-4.36-9.29l-.82,40.94H67.44l-2.39-60.42q-.73-23.59-3.7-65.85h57.71l-3.86,77.77a83.35,83.35,0,0,0,11.51.33q3.53-.09,9.53-.66l-4.19-77.44Z"/><path class="cls-1" d="M302.55,163.91q0,29-15,49.08-15.7,21-40.2,21-25.24,0-40.86-21.13-14.72-19.89-14.72-48.91,0-31,16-48.67,15.14-16.6,39.55-16.6,24,0,39.13,16.69Q302.54,133.07,302.55,163.91ZM263,178.38q0-22.86-15.46-22.85-15,0-15,23a38.26,38.26,0,0,0,3.94,17.19q4.44,9,10.94,9,6.33,0,11.18-9.13A36,36,0,0,0,263,178.38Z"/><path class="cls-1" d="M441.64,103.49q-1.15,17.27-3.37,63-1.15,28.11-1.73,63.3H406.79L406,191l-29,41.76-31.32-41.43-.82,38.39H315.21q-.58-18.82-2.22-63.63-1.15-25.81-4.2-62.64H355.9q2.46,6,8.47,19.4,4.61,9.54,12.57,22.52,3.54-5.58,13-23.1,3.38-6.48,8.63-18.82Z"/><path class="cls-1" d="M534.78,103.49l-3.53,52q-3-.5-13.16-1.73-6.9-.66-15.12-.82l-1.24,15.7q9,.24,29.52-.41-.91,3-2.88,11.34-1.15,5-2.06,11.59-2.38-.57-11.92-1.48-4.44-.24-13.15-.16l-.82,18.33q6.16-.07,22.69-1.07a74.9,74.9,0,0,0,10.27-2q-.64,2.55-3,12.25-1.15,5-2.79,12.66H454l-2.38-64.45q-.66-22.11-3.21-61.82Z"/><path class="cls-2" d="M161.11,300a67.49,67.49,0,0,1-6.66,30.24q-7.11,14.48-19.85,20.32c1.83,1.68-11,7.55-8.81,4.56a39.64,39.64,0,0,1-14.37,2.78q-22.74,0-36.81-17.53Q61.35,324,61.35,300q0-25.76,14.44-40.29,13.56-13.67,35.63-13.66,21.61,0,35.25,13.79Q161.12,274.49,161.11,300Zm-35.62,12.23q0-18.88-13.63-18.89-7.33,0-11,5.64-3.18,5-2.89,13.39a33.66,33.66,0,0,0,3.71,14.2q3.91,7.41,9.7,7.41t10.07-7.54A27.83,27.83,0,0,0,125.49,312.27Z"/><path class="cls-2" d="M128.5,333.2c2.12,2,4.67,3.55,6.89,5.46s4.34,3.77,6.55,5.62a84.77,84.77,0,0,0,12,7.2q-2.74,2.52-9.11,7.41a80.23,80.23,0,0,1-10,5.16,52.75,52.75,0,0,1-8.67-7.81,43.48,43.48,0,0,1-5.7-8.22,30.77,30.77,0,0,0,3.69-3.71C125.4,342.8,128.63,335.24,128.5,333.2Z"/><path class="cls-2" d="M264.36,250.62l-1.68,46.54q-.72,19.92-.73,60.28a113.67,113.67,0,0,1-38.16,6.61q-24,0-36.48-9.42-10.59-8-15-24.89-2.57-9.71-4.83-35.53-2.19-23.88-2.7-43.59H212q-.37,9.5-.88,30.93-.21,11.94.15,33.88.08,16.68,2.92,22.51,3,6.19,12,6.19a13.83,13.83,0,0,0,5.7-1.44q0-14.82-.87-47.12-.74-16.19-2.71-44.95Z"/><path class="cls-2" d="M347.19,250.62l-3.14,45.53q-2.7-.43-11.7-1.51-6.14-.57-13.45-.72l-1.1,13.74q8.06.21,26.25-.36-.81,2.65-2.56,9.93-1,4.38-1.83,10.14a105.45,105.45,0,0,0-10.6-1.3q-3.94-.21-11.69-.14l-.73,16q5.48-.08,20.17-.94a67,67,0,0,0,9.14-1.72q-.58,2.24-2.7,10.72-1,4.38-2.49,11.07H275.33l-2.12-56.39q-.58-19.35-2.85-54.09Z"/><path class="cls-2" d="M430.31,250.62l-3.14,45.53q-2.7-.43-11.7-1.51-6.14-.57-13.45-.72l-1.09,13.74q8,.21,26.24-.36-.81,2.65-2.56,9.93-1,4.38-1.83,10.14a105.45,105.45,0,0,0-10.6-1.3q-3.94-.21-11.69-.14l-.73,16q5.48-.08,20.17-.94a67,67,0,0,0,9.14-1.72q-.58,2.24-2.7,10.72c-.69,2.92-1.51,6.61-2.49,11.07H358.45l-2.12-56.39q-.58-19.35-2.85-54.09Z"/><path class="cls-2" d="M534.78,292a38.49,38.49,0,0,1-7.53,23.45,37.31,37.31,0,0,1-16.67,12.8q2.13,3.24,10.46,13.6a171,171,0,0,0,12.72,12.51q-3.43,1.23-15.14,6.19-8.18,3.66-15.42,7.19-2.11-2.6-9.43-13.38-3.36-5.46-9.87-18.41h-.15L483,361.1H441.86q-.8-15.68-2.26-51.71-.66-21.22-3-58.77a358.35,358.35,0,0,1,36.7-2.09Q534.79,248.53,534.78,292Zm-33.19,15.54q0-6.84-5.85-9.79a21.86,21.86,0,0,0-10.82-1.87l-.44,24.6a21.67,21.67,0,0,0,10.82-2.66Q501.6,314.35,501.59,307.52Z"/><path class="cls-3" d="M185.57,376.18q-1.41,20.22-3.7,65.85-.66,21.69-2.3,60.42H137.64l-.9-27.62q-1.49.5-6,2.38a62.18,62.18,0,0,0-7.56,3.7L118.9,470.8q-1.32-3.29-4.36-9.29l-.82,40.94H67.44L65.05,442q-.73-23.59-3.7-65.85h57.71L115.2,454a83.35,83.35,0,0,0,11.51.33q3.53-.09,9.53-.66l-4.19-77.44Z"/><path class="cls-3" d="M302.55,436.6q0,29-15,49.08-15.7,21-40.2,21-25.24,0-40.86-21.13-14.72-19.89-14.72-48.91,0-31,16-48.67,15.14-16.6,39.55-16.6,24,0,39.13,16.69Q302.54,405.77,302.55,436.6ZM263,451.07q0-22.86-15.46-22.85-15,0-15,23a38.18,38.18,0,0,0,3.94,17.18q4.44,9,10.94,9,6.33,0,11.18-9.13A36,36,0,0,0,263,451.07Z"/><path class="cls-3" d="M441.64,376.18q-1.15,17.26-3.37,63-1.15,28.11-1.73,63.3H406.79L406,463.73l-29,41.76-31.32-41.43-.82,38.39H315.21q-.58-18.82-2.22-63.63-1.15-25.81-4.2-62.64H355.9q2.46,6,8.47,19.4,4.61,9.54,12.57,22.52,3.54-5.58,13-23.1,3.38-6.5,8.63-18.82Z"/><path class="cls-3" d="M534.78,376.18l-3.53,52q-3-.5-13.16-1.73-6.9-.66-15.12-.82l-1.24,15.7q9,.24,29.52-.41-.91,3-2.88,11.34-1.15,5-2.06,11.59-2.38-.57-11.92-1.48-4.44-.24-13.15-.16l-.82,18.33q6.16-.07,22.69-1.07a74.9,74.9,0,0,0,10.27-2q-.64,2.55-3,12.25-1.15,5-2.79,12.66H454L451.59,438q-.66-22.11-3.21-61.82Z"/></svg>