<?xml version="1.0" encoding="utf-8"?>
<!-- Generator: Adobe Illustrator 23.0.1, SVG Export Plug-In . SVG Version: 6.00 Build 0)  -->
<svg version="1.1" id="HQHlogo" xmlns="http://www.w3.org/2000/svg" xmlns:xlink="http://www.w3.org/1999/xlink" x="0px" y="0px"
	 viewBox="0 0 1129 166" style="enable-background:new 0 0 1129 166;" xml:space="preserve">
<style type="text/css">
	.st0{display:none;fill:#FFA500;}
	.st1{fill:#8E202F;stroke:#0E1800;stroke-width:3;stroke-miterlimit:10;}
	.st2{fill:#FFFFFF;stroke:#0E1800;stroke-width:3;stroke-miterlimit:10;}
	.st3{fill:#FFA500;}
	.st4{fill:#FFFFFF;}
	.st5{fill:#0E1800;}
</style>
<rect x="-112.3" y="-57.2" class="st0" width="1709.5" height="307"/>
<g>
	<path class="st4" d="M132.7,119.6h-20.9V84c0-0.7,0-1.4-0.1-2.1c-0.1-0.7-0.4-1.5-1.1-2.4c-0.2-0.3-1.1-0.7-2.5-1.1
		c-1.5-0.5-2.4-0.7-2.8-0.7l-0.6,0.4c-0.7-0.1-1.5,0.3-2.5,1s-1.6,1.4-2,2.1c-0.3,0.2-0.6,0.6-0.8,1.2c-0.4,3.3-0.6,4.7-0.6,4.2
		c0,1.6,0.1,4,0.3,7.3c0.2,3.3,0.3,5.7,0.3,7.3l-0.3,15.7c-0.3,0.8-0.3,1.9,0,3.1H78.4c-0.4-0.2-0.6-0.6-0.6-1.2
		c0-0.3,0.1-1.1,0.2-2.4c0-0.6,0-2-0.1-4.5c-0.1-2-0.1-3.7,0-4.9c0.3,0.1,0.4-0.1,0.4-0.5c0-0.1-0.1-0.1-0.4-0.2
		c0.1-1.5,0-2.4-0.1-2.9l-0.7-69h20.9v25.8c0.1,1.1,0.5,1.7,1.4,1.7c0.1,0,0.9-0.4,2.2-1.2c1.3-0.8,2.2-1.2,2.7-1.4
		c2.6-1.2,5.6-1.8,9-1.8c2.8,0,5.8,0.6,9.1,1.7c3.7,1.3,6.1,2.7,7.1,4.3c0.8,0.8,1.7,2.1,2.6,3.9c0.2,0.6,0.3,3.1,0.3,7.4
		c0,1.3,0.1,3.4,0.2,6.3c0.1,2.8,0.2,4.3,0.2,4.3V119.6z M78.8,107.4v-0.5h-0.7v0.5H78.8z M79.4,72.8L79,72.7l-0.3,0.6l0.4,0.2
		L79.4,72.8z M80.4,47.7c0-0.4-0.2-0.8-0.7-1.3c0,0.4-0.1,0.7-0.3,1C79.5,47.6,79.9,47.7,80.4,47.7z M80.6,65.5
		c-0.4-0.8-0.8-1.3-1.3-1.3c0,0.2,0.1,0.5,0.2,0.9c0.1,0.4,0.2,0.6,0.2,0.7C80.1,65.8,80.4,65.7,80.6,65.5z M80.4,56.8l-0.1-0.3
		l-0.6,0.3v0.3L80.4,56.8z M81.6,49.7l-0.7-0.6l-0.2,0.2l0.6,0.6L81.6,49.7z M85.9,115.3h-0.7v-0.5h0.7V115.3z M86.8,71.9v-1.2
		c-0.2,0-0.5-0.1-0.7-0.3v1.5H86.8z M89.5,80.9c0,0.1-0.4,0.2-1.1,0.2c0.2,0,0.4,0.1,0.6,0.4c0-0.1,0.1-0.3,0.2-0.4
		C89.4,81,89.5,80.9,89.5,80.9z M89.9,107.4c-0.3-0.6-0.6-1-1-1v1.1C89.6,107.5,89.9,107.4,89.9,107.4z M90.9,70.6v-1h-0.5v1H90.9z
		 M91.2,71.5V71h-0.6v0.5H91.2z M93.2,101.2c0.1,0-0.2-0.3-0.8-0.8c-0.2,0.2-0.3,0.5-0.3,0.7c0,0.3,0.2,0.4,0.5,0.3
		C93.2,101.3,93.4,101.2,93.2,101.2z M98.8,71.9v-0.6h-0.5v0.6H98.8z M130.3,70.2l-0.2-0.4l-0.4,0.2l0.2,0.4L130.3,70.2z"/>
	<path class="st4" d="M202.5,90.9c0,1.5-0.4,2.8-1.1,4c0.1,0.1,0.3,0.2,0.7,0.2c-0.2,0.6-0.5,1.4-0.7,2.4
		c-0.5,5.7-3.4,10.8-8.8,15.6c-4.9,4.5-9.7,6.8-14.2,7c-0.1,0-0.3,0.1-0.6,0.2s-0.6,0.2-0.8,0.2s-1,0.1-2.3,0.2
		c-1.3,0.1-2.1,0.2-2.3,0.2c-3.8,0-6.4-0.5-7.7-1.4l-0.5,0.5c-7.4-2.1-13.1-6-17.3-11.8c-3.9-5.4-5.8-11.4-5.8-18
		c0-2.8,0.5-5.7,1.4-8.5c0.4-0.9,0.8-1.6,1.5-2.1c-0.2-0.6-0.2-1.3,0.1-1.9c6.1-11.4,15.1-17.2,27.1-17.2c3.5,0,7,0.5,10.5,1.5
		c0.8,0.2,2.2,0.8,4.1,1.9c2.7,1.6,4.7,2.8,5.9,3.8c2.2,1.8,3.7,3.7,4.7,5.8c0.2,0.1,0.5,0.2,0.8,0.5c0.1,0.3,0.3,0.8,0.7,1.7
		c0.4,0.8,0.6,1.5,0.6,2c0.3,0,0.7,0.2,1.2,0.7c0.3,0.6,0.3,1.1,0.1,1.6c0.1,0.1,0.4,0.4,0.6,0.7c0.1,0.1,0.1,0.6,0.1,1.4
		c0-0.2-0.3,0.8-0.8,3.1c0.2-0.2,0.5-0.1,0.7,0.2c0.3,0,0.4-0.2,0.4-0.7c0.5,0.3,0.8,0.9,0.9,1.9s0.2,1.5,0.3,1.5
		C202.4,88.6,202.5,89.4,202.5,90.9z M144.5,90.1c-0.3-0.5-0.8-1.1-1.5-1.8c0,0.1,0.1,0.5,0.2,1c0.1,0.4,0.1,0.6,0,0.8
		c0.1,0,0.4,0,0.7,0S144.5,90.1,144.5,90.1z M146.1,79v-0.5h-1V79H146.1z M154.4,70.8l-0.4-0.4l-0.2,0.2l0.3,0.4L154.4,70.8z
		 M183,90.9c0-2.5-1-4.9-3.1-7c-2.1-2.2-4.6-3.2-7.7-3.2c-2.9,0-5.5,1-7.7,3c-2.2,2-3.3,4.5-3.3,7.4c0,1.5,0.5,3,1.4,4.6
		c0.9,1.6,1.6,2.6,2.1,3c1.7,1.5,2.9,2.2,3.5,2.2c0.2,0,0.6,0.1,1.3,0.3c0.6,0.2,1.1,0.4,1.3,0.4c0.4,0.1,0.8,0.1,1.3-0.1
		c0.5-0.1,0.8-0.2,0.8-0.2c2.8,0,5.1-1.1,7.2-3.4C182,95.8,183,93.4,183,90.9z M162.5,96.2l-0.4-0.4l-0.2,0.3l0.3,0.4L162.5,96.2z
		 M163.5,118.9h-0.7v-0.4h0.7V118.9z M168.4,113.6l-0.4-0.4l-0.3,0.3l0.4,0.3L168.4,113.6z M186.7,67.2l-1.1-0.3v0.4l0.8,0.3
		L186.7,67.2z M192.6,88.8c0-0.6-0.1-1.1-0.3-1.3c-0.4,0.4-0.6,0.7-0.6,1C191.9,88.7,192.2,88.8,192.6,88.8z M192.6,71.5v-0.4H192
		v0.4H192.6z M195.1,75.6V75l-1.3-0.3v0.5L195.1,75.6z M198.1,84.9c-0.1,0-0.5,0.3-1.2,0.8c0.5,0.5,0.7,0.8,0.7,0.8
		c0-0.1,0.1-0.4,0.3-0.8C198.1,85.4,198.1,85.1,198.1,84.9z"/>
	<path class="st4" d="M295.7,119.9h-21.2V88.5c0-1.3-0.2-3.3-0.5-5.9c0-0.5-0.2-1.2-0.5-2.2c-0.3-1-1.1-2.4-2.4-4.3
		c-0.2,0-0.3,0.2-0.3,0.5c-0.6-0.4-1.2-0.5-1.9-0.5c-1.2,0-2.4,0.6-3.6,1.7c-1.2,1.1-1.8,2.2-1.8,3.1V120H262c0-0.2-0.2-0.5-0.5-0.8
		c-0.4,0-0.5,0.3-0.1,1h-19.1V90.6c0-2.3-0.1-4-0.4-5.3c-0.1-0.9-0.2-2.1-0.4-3.6c-1.1-3.6-2.6-5.4-4.5-5.4c-5,0-7.5,3.4-7.5,10.3
		l1.1,26c0,0.8-0.1,1.5-0.2,1.9c-0.8,2.3-0.7,4,0.2,4.9h-20.1L209.6,56c-0.1,0,1.3,0,4.2,0c0.3,0,0.4,0.1,0.4,0.3
		c0,0.2,0.1,0.3,0.3,0.3c0.1,0,0.4-0.1,0.7-0.4c0.4-0.1,5.3-0.1,14.8-0.1c-0.3,0.4-0.4,2-0.4,4.8c0.1,0.1,0.2,0.4,0.4,0.7
		c6-4.2,11-6.4,14.9-6.4c2.6,0,5.1,0.5,7.3,1.6c1.3,0.6,2.8,1.6,4.5,2.9c1.3,1.1,2.2,1.6,2.7,1.6c0.6,0,1.4-0.5,2.4-1.4
		c0.6-0.6,1.2-1.1,1.8-1.6c1.9-1.3,3.3-2,4.2-2.1c3.9-0.8,6.6-1.2,8.1-1.2c4.2,0,7.7,0.7,10.3,2c2.7,1.3,4.9,3.6,6.7,6.9
		c0.1,0.5,0.2,1.1,0.3,1.8c0.5,0.4,0.9,1.2,1.2,2.3c0.3,1.1,0.5,2.2,0.5,3.3v2.5c0.1,0.1,0.3,0.2,0.5,0.2V119.9z M212.3,63.5V62
		h-0.4v1.5H212.3z M212.8,85.8l-0.4-0.4l-0.2,0.3l0.3,0.3L212.8,85.8z M214.1,105.2l-0.3-0.1l-0.3,0.6l0.3,0.1L214.1,105.2z
		 M214.8,75.1l-1.1-0.2h0.6v0.8C214.5,75.6,214.7,75.4,214.8,75.1z M217.8,118.9h-0.4v-3.1h0.4V118.9z M220.3,58.6
		c-0.1,0-0.3-0.1-0.6-0.2c-0.4-0.1-0.6-0.2-0.6-0.2c0,0.7-0.2,1.4-0.5,2c0.1,0.1,0.4,0.2,0.6,0.3C219.4,59.8,219.8,59.1,220.3,58.6z
		 M219.6,103.7l-0.3-0.1l-0.3,0.6l0.3,0.2L219.6,103.7z M220.5,81.5c0-0.4-0.3-0.6-1-0.6v1C220,81.8,220.3,81.7,220.5,81.5z
		 M220.9,85.2l-0.3-1.3h-0.4l0.3,1.3H220.9z M220.9,85.5h-0.4l-0.3,0.8l0.4,0.2L220.9,85.5z M223,90.2v-0.7h-0.4v0.7H223z
		 M223.7,110.1l-0.1-0.4L223,110v0.4L223.7,110.1z M224.6,107.6l-0.3-0.1l-0.3,0.6l0.3,0.2L224.6,107.6z M225.3,99.7h-1.1v0.8
		C224.4,100.6,224.7,100.3,225.3,99.7z M226,98.8c0-1.1-0.1-1.7-0.4-2c0,0.9,0,1.3,0,1.3c-0.1-0.1-0.2-0.1-0.4,0.1
		c-0.2,0.2-0.3,0.4-0.3,0.6C225,98.8,225.4,98.8,226,98.8z M225.7,106.3v-0.5h-0.6v0.5H225.7z M226.1,95.6l-0.3-0.2l-0.6,1l0.3,0.2
		L226.1,95.6z M227.8,104.9c-0.4,0-0.8,0.4-1.5,1.2h1C227.4,105.8,227.6,105.4,227.8,104.9z M227.4,113.3l-0.4-0.4l-0.2,0.3l0.3,0.3
		L227.4,113.3z M229,89.8l-0.3-0.1l-0.4,0.6l0.4,0.2L229,89.8z M229.3,102.1h-0.4l-0.3,1.2h0.4L229.3,102.1z M243.1,98.1l-0.3-0.1
		l-0.3,0.6l0.3,0.2L243.1,98.1z M244.2,108.6l-0.3-0.1l-0.3,0.6l0.3,0.1L244.2,108.6z M246.5,113.6c0-1.3-0.1-2.2-0.4-2.8
		c0,0.3-0.1,0.8-0.2,1.6c-0.1,0.8-0.2,1.3-0.2,1.5C246.2,113.9,246.5,113.8,246.5,113.6z M249.6,112c-0.8-0.4-1.4-0.5-1.8-0.3
		c0.6,1.2,0.9,1.7,1,1.5v-1.3C249.1,112.3,249.4,112.3,249.6,112z M250,114.5v-2h-0.5v2H250z M250.7,112.3v-1h-0.4v1H250.7z
		 M252.6,115.5c-0.1-1.9-0.1-2.6-0.2-2c-0.5,0-0.7,0.2-0.7,0.7C251.7,114.8,252,115.2,252.6,115.5z M256.7,82.7
		c-0.2,0-0.4,0.1-0.7,0.3c-0.2,0.2-0.4,0.3-0.5,0.3c-0.1-0.2-0.2-0.4-0.3-0.5c-0.1,0.4-0.2,0.9-0.3,1.5c-0.1,0.6-0.4,0.9-0.9,1
		c0.5,0,0.9-0.1,1.2-0.4c0.1,0.4,0.5,0.7,1.2,1C256.1,84.9,256.2,83.9,256.7,82.7z M256.4,100.8v-0.5l-1.5-0.2v0.4L256.4,100.8z
		 M255.4,98.2v-1H255v1H255.4z M255.9,77.9v-0.7h-0.4v0.7H255.9z M256.8,76.5l-0.3-0.2l-0.6,0.6l0.2,0.2L256.8,76.5z M257.9,86.6
		c-0.1,0-0.2,0.1-0.4,0.2c-0.2,0.1-0.4,0.2-0.7,0.2c-0.2,0-0.4-0.4-0.4-1.2v2.2c0.2,0.1,0.5,0.4,1,0.8c0-0.1,0.1-0.5,0.3-1
		C257.9,87.4,257.9,86.9,257.9,86.6z M257.1,109.9v-0.4h-0.6v0.4H257.1z M258.8,73.5l-0.3-0.4l-0.3,0.3l0.4,0.3L258.8,73.5z
		 M258.8,76.2l-0.3-0.4l-0.3,0.2l0.4,0.4L258.8,76.2z M258.6,114.8v-1.5h-0.4v1.5H258.6z M268.5,60.8v-1h-0.4v1H268.5z M274.3,79.2
		v-0.7h-0.4v0.7H274.3z M277.7,92.1h-0.3l-0.3,0.8l0.3,0.1L277.7,92.1z M279.2,89.8l-0.4-0.1l-0.3,0.6l0.4,0.2L279.2,89.8z
		 M279.8,113.5l-0.4-0.3l-0.2,0.2l0.3,0.4L279.8,113.5z M280,114.4l-0.4-0.4l-0.2,0.3l0.3,0.3L280,114.4z M286.6,90.2v-0.7h-0.4v0.7
		H286.6z M287.7,64.4V64l-1.2-0.3v0.4L287.7,64.4z M288.2,111.8v-1h-0.4v1H288.2z M288.7,73.3l-0.4-0.2l-0.3,0.7l0.4,0.1L288.7,73.3
		z M289.3,86.5v-1c-0.1,0-0.3,0.2-0.7,0.6C288.7,86.3,289,86.4,289.3,86.5z M289.7,99.5l-0.3-0.7L289,99l0.3,0.5H289.7z
		 M290.3,103.9h-0.4l-0.3,0.8l0.3,0.1L290.3,103.9z M290.4,91.4v-0.4h-0.7v0.4H290.4z M290.9,64.1v-0.4h-0.7v0.4H290.9z M291.8,68.6
		l-0.4-0.4l-0.2,0.3l0.3,0.3L291.8,68.6z M291.5,78.1v-1h-0.4v1H291.5z M292,63.5c0-0.2-0.1-0.5-0.3-0.7c-0.3,0-0.4,0.4-0.4,1.3
		L292,63.5z M292.5,86.5l-0.6-0.7c-0.3,0-0.4,0.2-0.4,0.7H292.5z M293.7,90.2v-0.7h-0.5v0.7H293.7z M294,73.3v-0.5h-0.6v0.5H294z"/>
	<path class="st4" d="M366.3,76.7l-31,23.4c0.4,0.6,1.4,1.1,3.2,1.5c1.5,0.4,2.8,0.5,3.9,0.5c2.3,0,5.8-1,10.3-3.1
		c4.6-2.1,7.4-3.9,8.5-5.5c0.1,0.1,0.2,1.7,0.5,4.9c0.5,5.7,0.7,8.8,0.6,9.4c0.4,0.4,0.5,0.7,0.5,1v3.9c-3.1,1.4-6.3,2.8-9.4,4.1
		c-4.4,1.8-8,2.7-10.8,2.7c0,0.3-0.2,0.4-0.6,0.4h-7.4c-0.1,0-0.4-0.1-0.8-0.4c0.3,0.3-0.1,0.4-1.1,0.4c-1.7,0-4.7-0.9-9.1-2.7
		c-5.9-2.3-10.6-6.3-14.1-11.8c-3.1-5-4.7-10.4-4.7-16c0-0.1,0.1-0.6,0.2-1.4c0.1-0.8,0.2-1.4,0.2-1.8c0.4-8.2,4.1-15.4,11.1-21.4
		c6.4-5.5,13.2-8.2,20.2-8.2c1.2,0,1.9,0.2,2,0.5c0.3,0,0.6-0.1,0.9-0.3c0.3-0.2,0.6-0.3,0.8-0.3c2,0,4.4,0.4,7.3,1.2
		c3.9,1.1,7.6,3.5,11.1,7.3C362.1,68.7,364.6,72.6,366.3,76.7z M324.1,65v-1l-1.1,1H324.1z M324.6,62.8c-0.1-0.3-0.4-0.7-0.6-1.3
		c0,0.4-0.2,1-0.6,1.8c0.1,0,0.3-0.1,0.6-0.3C324.3,62.9,324.5,62.8,324.6,62.8z M341.5,76.5c0-0.2-0.1-0.5-0.3-1
		c-0.7-0.2-1.8-0.6-3.3-1.1c-1.2-0.4-1.9-0.6-2.1-0.6c-0.8,0-2.1,0.5-4.1,1.6c-1.9,1.1-3.5,2.6-4.6,4.7c-1.1,2.1-1.7,4.1-1.7,6
		c0,0.5,0,1,0.1,1.5c0.4,0.4,0.9,0.6,1.4,0.6c0.2,0,2.7-1.8,7.5-5.3C339.1,79.4,341.5,77.3,341.5,76.5z M326.3,63.5v-1.1h-0.4v1.1
		H326.3z M343.9,115.5l-0.3,0.7l-0.3-0.1l0.3-0.7L343.9,115.5z M347.9,64.1l-0.4-0.4l-0.2,0.2l0.3,0.4L347.9,64.1z M357.7,110
		c0-0.2-0.2-0.5-0.6-1c-0.1,0.1-0.1,0.5-0.1,1.3C357.1,110.3,357.3,110.2,357.7,110z"/>
	<path class="st4" d="M471.4,141.2h-19.3v-25.4c-0.3-0.3-0.8-0.4-1.5-0.4c-0.3,0-0.8,0.3-1.6,0.8c-1,0.8-1.7,1.3-2,1.5
		c-3,1.6-6,2.4-9.1,2.4c-1.6,0-2.6-0.2-2.9-0.5c-0.1,0.2-0.2,0.4-0.2,0.5h-1c-0.2,0-0.6-0.2-1.1-0.5c-0.5-0.4-0.8-0.5-1.1-0.5
		c-0.4,0-0.5,0.2-0.5,0.5c0.1-0.3,0-0.7-0.3-1.3c-0.1,0.1-0.2,0.1-0.5,0c-0.3-0.1-0.5-0.2-0.5-0.4c-0.5-0.6-1-1.1-1.6-1.3
		c-0.3,0.4-0.7,0.9-1.4,1.6c-0.6-0.1-1.4-0.3-2.4-0.6c-1.2-1-1.8-1.5-1.7-1.5c-0.3,0-0.4,0.1-0.3,0.2c0.1,0.1,0,0.2-0.3,0.2
		c-0.1,0-1.4-1-4.1-2.9c-0.3-0.4-0.7-0.8-1.2-1.4c-3.3-2.8-6-6.4-8-11c-1.8-4.2-2.6-8.5-2.6-12.7c0-12.4,5.5-21.6,16.6-27.8
		c3-1.7,6.8-2.5,11.4-2.5c3,0,6.3,0.7,9.7,2c1.6,0.7,3.3,1.4,5,2h1c0.1-0.1,0.4-1.5,0.8-4h20.6V141.2z M418.2,73.4l-0.3-0.8
		l-0.4,0.2l0.3,0.6H418.2z M450.8,89c0-4.3-2.1-7.5-6.3-9.7c-1.1-0.6-2.6-1-4.3-1c-3,0-5.8,1.2-8.2,3.5c-2.4,2.3-3.6,5-3.6,8
		c0,1.8,1.2,4.4,3.6,7.7c1,0.8,2.5,1.7,4.6,2.7c0.3,0.1,1.2,0.1,2.6,0.1c3,0,5.4-0.7,7.1-2C449.3,96,450.8,92.9,450.8,89z
		 M459.3,139.5c-0.1,0-0.3,0-0.6,0.1c-0.4,0.1-0.6,0.1-0.6,0.1l0.7-0.7C458.9,139,459.1,139.2,459.3,139.5z"/>
	<path class="st4" d="M534.6,120.3h-20.7c0-0.1,0-0.8,0-2.3c0.1-1-0.2-1.8-0.7-2.3c-1.9,1.7-4.4,3.2-7.6,4.5
		c-3.1,1.3-5.8,1.9-7.9,1.9c-1.9,0-3.9-0.4-5.9-1.3c-1.4-0.7-2.7-1.4-4.1-2c-1.8-0.8-3.5-2.8-5.1-6c-1.6-3.1-2.5-5.8-2.5-8v-6.8
		c0,0.1,0-1,0-3.3c0-2,0-3.4,0-4.1c0.1-0.5,0.3-0.8,0.7-1.1c-0.1-0.1-0.4-0.4-0.7-0.7V58.4h21.3v6.7c0,0.1,0.1,0.4,0.2,0.9
		c0.1,0.5,0.2,0.8,0.2,1.1c0,1.6,0.1,5.7,0.4,12.3c0,0.1-0.2,1.8-0.5,5.1c-0.4,3.3-0.5,5-0.5,5.3c0,7.1,1.6,10.6,4.8,10.6
		c0.2,0,0.4,0.1,0.6,0.2c0.2,0.1,0.5,0.2,0.7,0.2c0.1,0,0.6-0.2,1.5-0.6c0.9-0.4,1.8-1.2,2.9-2.4c1-1.2,1.5-2.3,1.5-3.2
		c-0.1-1.2-0.1-3.3,0-6.4v-30h20.2l0.2,0.3c0.3,0.8,0.3,2.1,0.1,3.7c0,0.3,0.1,1.6,0.2,4c0.1,1.7-0.1,2.9-0.5,3.6v32.3
		c0.1,0.1,0.4,0.2,0.8,0.2c0-0.5,0,2.7,0,9.5c0,0.2-0.2,0.5-0.5,0.7c0.5,0.6,0.7,1.1,0.7,1.6V120.3z M523.6,82.3v-0.4l-1.3-0.3V82
		L523.6,82.3z M522.9,92.7v-1h-0.5v1H522.9z M528.7,81.1l-0.3-0.2l-0.4,0.7l0.4,0.1L528.7,81.1z M530.5,77.6l-0.3-0.4l-0.3,0.3
		l0.4,0.3L530.5,77.6z M531.5,105.8l-0.3,0.6l-0.3-0.1l0.3-0.6L531.5,105.8z"/>
	<path class="st4" d="M604.7,76.7l-31,23.4c0.4,0.6,1.4,1.1,3.2,1.5c1.5,0.4,2.8,0.5,3.9,0.5c2.3,0,5.8-1,10.3-3.1
		c4.6-2.1,7.4-3.9,8.5-5.5c0.1,0.1,0.2,1.7,0.5,4.9c0.5,5.7,0.7,8.8,0.6,9.4c0.4,0.4,0.5,0.7,0.5,1v3.9c-3.1,1.4-6.3,2.8-9.4,4.1
		c-4.4,1.8-8,2.7-10.8,2.7c0,0.3-0.2,0.4-0.6,0.4h-7.4c-0.1,0-0.4-0.1-0.8-0.4c0.3,0.3-0.1,0.4-1.1,0.4c-1.7,0-4.7-0.9-9.1-2.7
		c-5.9-2.3-10.6-6.3-14.1-11.8c-3.1-5-4.7-10.4-4.7-16c0-0.1,0.1-0.6,0.2-1.4c0.1-0.8,0.2-1.4,0.2-1.8c0.4-8.2,4.1-15.4,11.1-21.4
		c6.4-5.5,13.2-8.2,20.2-8.2c1.2,0,1.9,0.2,2,0.5c0.3,0,0.6-0.1,0.9-0.3c0.3-0.2,0.6-0.3,0.8-0.3c2,0,4.4,0.4,7.3,1.2
		c3.9,1.1,7.6,3.5,11.1,7.3C600.5,68.7,603,72.6,604.7,76.7z M562.5,65v-1l-1.1,1H562.5z M563,62.8c-0.1-0.3-0.4-0.7-0.6-1.3
		c0,0.4-0.2,1-0.6,1.8c0.1,0,0.3-0.1,0.6-0.3C562.7,62.9,562.9,62.8,563,62.8z M579.9,76.5c0-0.2-0.1-0.5-0.3-1
		c-0.7-0.2-1.8-0.6-3.3-1.1c-1.2-0.4-1.9-0.6-2.1-0.6c-0.8,0-2.1,0.5-4.1,1.6c-1.9,1.1-3.5,2.6-4.6,4.7c-1.1,2.1-1.7,4.1-1.7,6
		c0,0.5,0,1,0.1,1.5c0.4,0.4,0.9,0.6,1.4,0.6c0.2,0,2.7-1.8,7.5-5.3C577.5,79.4,579.9,77.3,579.9,76.5z M564.7,63.5v-1.1h-0.4v1.1
		H564.7z M582.3,115.5l-0.3,0.7l-0.3-0.1l0.3-0.7L582.3,115.5z M586.3,64.1l-0.4-0.4l-0.2,0.2l0.3,0.4L586.3,64.1z M596.1,110
		c0-0.2-0.2-0.5-0.6-1c-0.1,0.1-0.1,0.5-0.1,1.3C595.5,110.3,595.7,110.2,596.1,110z"/>
	<path class="st4" d="M673.4,76.7l-31,23.4c0.4,0.6,1.4,1.1,3.2,1.5c1.5,0.4,2.8,0.5,3.9,0.5c2.3,0,5.8-1,10.3-3.1
		c4.6-2.1,7.4-3.9,8.5-5.5c0.1,0.1,0.2,1.7,0.5,4.9c0.5,5.7,0.7,8.8,0.6,9.4c0.4,0.4,0.5,0.7,0.5,1v3.9c-3.1,1.4-6.3,2.8-9.4,4.1
		c-4.4,1.8-8,2.7-10.8,2.7c0,0.3-0.2,0.4-0.6,0.4h-7.4c-0.1,0-0.4-0.1-0.8-0.4c0.3,0.3-0.1,0.4-1.1,0.4c-1.7,0-4.7-0.9-9.1-2.7
		c-5.9-2.3-10.6-6.3-14.1-11.8c-3.1-5-4.7-10.4-4.7-16c0-0.1,0.1-0.6,0.2-1.4c0.1-0.8,0.2-1.4,0.2-1.8c0.4-8.2,4.1-15.4,11.1-21.4
		c6.4-5.5,13.2-8.2,20.2-8.2c1.2,0,1.9,0.2,2,0.5c0.3,0,0.6-0.1,0.9-0.3c0.3-0.2,0.6-0.3,0.8-0.3c2,0,4.4,0.4,7.3,1.2
		c3.9,1.1,7.6,3.5,11.1,7.3C669.2,68.7,671.7,72.6,673.4,76.7z M631.2,65v-1l-1.1,1H631.2z M631.7,62.8c-0.1-0.3-0.4-0.7-0.6-1.3
		c0,0.4-0.2,1-0.6,1.8c0.1,0,0.3-0.1,0.6-0.3C631.4,62.9,631.6,62.8,631.7,62.8z M648.5,76.5c0-0.2-0.1-0.5-0.3-1
		c-0.7-0.2-1.8-0.6-3.3-1.1c-1.2-0.4-1.9-0.6-2.1-0.6c-0.8,0-2.1,0.5-4.1,1.6c-1.9,1.1-3.5,2.6-4.6,4.7c-1.1,2.1-1.7,4.1-1.7,6
		c0,0.5,0,1,0.1,1.5c0.4,0.4,0.9,0.6,1.4,0.6c0.2,0,2.7-1.8,7.5-5.3C646.2,79.4,648.5,77.3,648.5,76.5z M633.4,63.5v-1.1H633v1.1
		H633.4z M651,115.5l-0.3,0.7l-0.3-0.1l0.3-0.7L651,115.5z M655,64.1l-0.4-0.4l-0.2,0.2l0.3,0.4L655,64.1z M664.8,110
		c0-0.2-0.2-0.5-0.6-1c-0.1,0.1-0.1,0.5-0.1,1.3C664.2,110.3,664.4,110.2,664.8,110z"/>
	<path class="st4" d="M717.1,68.5l-0.3,10.3c-3.7,0.1-6.8,0.8-9.2,2.2c-2.8,1.6-4.1,3.7-4.1,6.6c0,0.4-0.1,0.8-0.4,1.3
		c-0.1-0.4-0.1,1.3-0.1,5l0.2,26c-0.1,0-1-0.3-2.7-0.8c-1.6-0.5-3.3-0.8-5-0.8c-3,0-6.4,0.7-10.3,2.1c-0.2,0.1-0.5,0.1-0.8,0
		c-0.1-0.1-0.3-0.3-0.6-0.5l-0.2-2.3c0.1,0,0.1-0.1,0.2-0.3c0-0.2,0.2-0.3,0.5-0.3c0.2,0,0.3,0.1,0.4,0.2c0,0.1,0.2,0.2,0.4,0.2
		c-0.1-0.6-0.1-1.1,0.3-1.6c0.3-0.5,0.5-1,0.5-1.4c0.1,0,0.3-0.1,0.6-0.2c0.3-0.1,0.6-0.2,0.7-0.3c0.2-0.1,0.3-0.2,0.3-0.5
		c0-0.7-0.4-1.3-1.1-1.7s-1.4-0.6-2-0.6c-0.2,0-0.3,0.1-0.3,0.2c0,0.1-0.1,0.2-0.3,0.2c-0.3,0-0.4-0.1-0.5-0.4
		c0-0.2-0.1-0.4-0.1-0.5l-1.2,0.3V93.1c-0.1-0.8,0.2-2,1-3.4l0.6,0.3c0.1-0.5,0.1-1.1-0.2-1.9c-0.1,0.1-0.1,0.4-0.1,1.1
		c-0.2,0-0.5,0.2-1,0.5c0-0.5-0.2-1.3-0.6-2.3c0.4,0,0.6-0.1,0.8-0.2V76c-0.4-0.3-0.7-0.4-1-0.4V58.3h18.3c1.5,0,2.4,0.2,2.9,0.7
		c0,0.1,0.4,1.1,1.3,3c0.6-0.1,2.5-1,5.7-2.6c2.7-1.3,4.8-1.9,6.5-1.6c0.7,0.8,0.8,3.1,0.2,7C716.9,65.2,717.1,66.5,717.1,68.5z
		 M683.5,78.3l-0.2-0.4l-0.4,0.2l0.2,0.4L683.5,78.3z M689.7,86.6l-1.3-0.3c-0.4,0.7-0.6,1.1-0.7,1.1c-0.3-0.2-0.7-0.5-1.2-0.8
		c-0.2,0.4-0.3,1-0.3,1.7c-0.1-0.1-0.5,0.1-1.2,0.4c-0.1-0.1-0.2-0.4-0.2-0.7c-0.1,0.1-0.3,0.3-0.4,0.6c-0.1,0.3-0.2,0.5-0.3,0.6
		c0.7,0.3,1.2,0.4,1.5,0.4C686.5,88.8,687.9,87.9,689.7,86.6z M686.2,79c0-0.6-0.1-1-0.4-1c-0.1,0-0.4,0.1-0.6,0.4
		c0.1,0,0.2,0.1,0.5,0.3C685.8,78.9,686,79,686.2,79z M686.5,84.9v-0.7h-0.4v0.7H686.5z M690.2,79.6l-0.2-0.4l-0.5,0.3v0.4
		L690.2,79.6z M691.5,86.4c-0.1,0.1-0.3,0.3-0.6,0.4c-0.3,0.1-0.5,0.2-0.7,0.3c0-0.5,0.2-1.1,0.6-1.8
		C691.3,85.6,691.5,86,691.5,86.4z M693.1,85.6c-0.4-0.4-0.8-0.6-1.5-0.6c0.1,0,0.2,0.4,0.2,1.2c0.1,0,0.3-0.1,0.6-0.3
		C692.8,85.7,693,85.6,693.1,85.6z M699.7,82c-0.6,0.2-1.3,0.5-2.1,0.8c-0.7,0.3-1.1,0.7-1.2,1.2c0.1-0.1,0.6-0.3,1.5-0.6
		c0.6-0.3,1.1-0.4,1.5-0.4C699.6,82.8,699.7,82.5,699.7,82z M697.8,67.8c0-0.2-0.1-0.5-0.2-0.7c-0.1-0.3-0.2-0.5-0.2-0.5
		c-0.4,0.4-0.6,0.8-0.6,1.3H697.8z M699.7,66.9l-1-0.3c0,0.1,0.1,0.4,0.3,0.7C699.3,67.2,699.5,67,699.7,66.9z M701.4,65.9l-0.3-0.3
		l-0.7,0.6l0.2,0.3L701.4,65.9z M714.2,64.5c-0.3-0.2-0.6-0.5-0.8-1v-0.5c-0.1,0-0.3,0.6-0.4,1.8L714.2,64.5z M716.9,86.7v-0.7h-0.4
		v0.7H716.9z M719,64.1c-0.3-0.5-0.6-2.3-0.8-5.3L719,64.1z"/>
	<path class="st4" d="M814.1,119.6h-20.9V84c0-0.7,0-1.4-0.1-2.1c-0.1-0.7-0.4-1.5-1.1-2.4c-0.2-0.3-1.1-0.7-2.5-1.1
		c-1.5-0.5-2.4-0.7-2.8-0.7l-0.6,0.4c-0.7-0.1-1.5,0.3-2.5,1s-1.6,1.4-2,2.1c-0.3,0.2-0.6,0.6-0.8,1.2c-0.4,3.3-0.6,4.7-0.6,4.2
		c0,1.6,0.1,4,0.3,7.3c0.2,3.3,0.3,5.7,0.3,7.3l-0.3,15.7c-0.3,0.8-0.3,1.9,0,3.1h-20.6c-0.4-0.2-0.6-0.6-0.6-1.2
		c0-0.3,0.1-1.1,0.2-2.4c0-0.6,0-2-0.1-4.5c-0.1-2-0.1-3.7,0-4.9c0.3,0.1,0.4-0.1,0.4-0.5c0-0.1-0.1-0.1-0.4-0.2
		c0.1-1.5,0-2.4-0.1-2.9l-0.7-69h20.9v25.8c0.1,1.1,0.5,1.7,1.4,1.7c0.1,0,0.9-0.4,2.2-1.2c1.3-0.8,2.2-1.2,2.7-1.4
		c2.6-1.2,5.6-1.8,9-1.8c2.8,0,5.8,0.6,9.1,1.7c3.7,1.3,6.1,2.7,7.1,4.3c0.8,0.8,1.7,2.1,2.6,3.9c0.2,0.6,0.3,3.1,0.3,7.4
		c0,1.3,0.1,3.4,0.2,6.3c0.1,2.8,0.2,4.3,0.2,4.3V119.6z M760.3,107.4v-0.5h-0.7v0.5H760.3z M760.9,72.8l-0.4-0.1l-0.3,0.6l0.4,0.2
		L760.9,72.8z M761.9,47.7c0-0.4-0.2-0.8-0.7-1.3c0,0.4-0.1,0.7-0.3,1C761,47.6,761.4,47.7,761.9,47.7z M762.1,65.5
		c-0.4-0.8-0.8-1.3-1.3-1.3c0,0.2,0.1,0.5,0.2,0.9c0.1,0.4,0.2,0.6,0.2,0.7C761.5,65.8,761.9,65.7,762.1,65.5z M761.9,56.8l-0.1-0.3
		l-0.6,0.3v0.3L761.9,56.8z M763,49.7l-0.7-0.6l-0.2,0.2l0.6,0.6L763,49.7z M767.4,115.3h-0.7v-0.5h0.7V115.3z M768.2,71.9v-1.2
		c-0.2,0-0.5-0.1-0.7-0.3v1.5H768.2z M771,80.9c0,0.1-0.4,0.2-1.1,0.2c0.2,0,0.4,0.1,0.6,0.4c0-0.1,0.1-0.3,0.2-0.4
		C770.9,81,771,80.9,771,80.9z M771.4,107.4c-0.3-0.6-0.6-1-1-1v1.1C771.1,107.5,771.4,107.4,771.4,107.4z M772.4,70.6v-1h-0.5v1
		H772.4z M772.7,71.5V71H772v0.5H772.7z M774.7,101.2c0.1,0-0.2-0.3-0.8-0.8c-0.2,0.2-0.3,0.5-0.3,0.7c0,0.3,0.2,0.4,0.5,0.3
		C774.7,101.3,774.9,101.2,774.7,101.2z M780.3,71.9v-0.6h-0.5v0.6H780.3z M811.8,70.2l-0.2-0.4l-0.4,0.2l0.2,0.4L811.8,70.2z"/>
	<path class="st4" d="M884,90.9c0,1.5-0.4,2.8-1.1,4c0.1,0.1,0.3,0.2,0.7,0.2c-0.2,0.6-0.5,1.4-0.7,2.4c-0.5,5.7-3.4,10.8-8.8,15.6
		c-4.9,4.5-9.7,6.8-14.2,7c-0.1,0-0.3,0.1-0.6,0.2s-0.6,0.2-0.8,0.2s-1,0.1-2.3,0.2c-1.3,0.1-2.1,0.2-2.3,0.2
		c-3.8,0-6.4-0.5-7.7-1.4l-0.5,0.5c-7.4-2.1-13.1-6-17.3-11.8c-3.9-5.4-5.8-11.4-5.8-18c0-2.8,0.5-5.7,1.4-8.5
		c0.4-0.9,0.8-1.6,1.5-2.1c-0.2-0.6-0.2-1.3,0.1-1.9c6.1-11.4,15.1-17.2,27.1-17.2c3.5,0,7,0.5,10.5,1.5c0.8,0.2,2.2,0.8,4.1,1.9
		c2.7,1.6,4.7,2.8,5.9,3.8c2.2,1.8,3.7,3.7,4.7,5.8c0.2,0.1,0.5,0.2,0.8,0.5c0.1,0.3,0.3,0.8,0.7,1.7c0.4,0.8,0.6,1.5,0.6,2
		c0.3,0,0.7,0.2,1.2,0.7c0.3,0.6,0.3,1.1,0.1,1.6c0.1,0.1,0.4,0.4,0.6,0.7c0.1,0.1,0.1,0.6,0.1,1.4c0-0.2-0.3,0.8-0.8,3.1
		c0.2-0.2,0.5-0.1,0.7,0.2c0.3,0,0.4-0.2,0.4-0.7c0.5,0.3,0.8,0.9,0.9,1.9s0.2,1.5,0.3,1.5C883.8,88.6,884,89.4,884,90.9z M826,90.1
		c-0.3-0.5-0.8-1.1-1.5-1.8c0,0.1,0.1,0.5,0.2,1c0.1,0.4,0.1,0.6,0,0.8c0.1,0,0.4,0,0.7,0S825.9,90.1,826,90.1z M827.6,79v-0.5h-1
		V79H827.6z M835.8,70.8l-0.4-0.4l-0.2,0.2l0.3,0.4L835.8,70.8z M864.5,90.9c0-2.5-1-4.9-3.1-7c-2.1-2.2-4.6-3.2-7.7-3.2
		c-2.9,0-5.5,1-7.7,3c-2.2,2-3.3,4.5-3.3,7.4c0,1.5,0.5,3,1.4,4.6c0.9,1.6,1.6,2.6,2.1,3c1.7,1.5,2.9,2.2,3.5,2.2
		c0.2,0,0.6,0.1,1.3,0.3s1.1,0.4,1.3,0.4c0.4,0.1,0.8,0.1,1.3-0.1c0.5-0.1,0.8-0.2,0.8-0.2c2.8,0,5.1-1.1,7.2-3.4
		C863.5,95.8,864.5,93.4,864.5,90.9z M844,96.2l-0.4-0.4l-0.2,0.3l0.3,0.4L844,96.2z M845,118.9h-0.7v-0.4h0.7V118.9z M849.8,113.6
		l-0.4-0.4l-0.3,0.3l0.4,0.3L849.8,113.6z M868.2,67.2l-1.1-0.3v0.4l0.8,0.3L868.2,67.2z M874.1,88.8c0-0.6-0.1-1.1-0.3-1.3
		c-0.4,0.4-0.6,0.7-0.6,1C873.4,88.7,873.7,88.8,874.1,88.8z M874.1,71.5v-0.4h-0.6v0.4H874.1z M876.5,75.6V75l-1.3-0.3v0.5
		L876.5,75.6z M879.5,84.9c-0.1,0-0.5,0.3-1.2,0.8c0.5,0.5,0.7,0.8,0.7,0.8c0-0.1,0.1-0.4,0.3-0.8C879.5,85.4,879.6,85.1,879.5,84.9
		z"/>
	<path class="st4" d="M977.1,119.9h-21.2V88.5c0-1.3-0.2-3.3-0.5-5.9c0-0.5-0.2-1.2-0.5-2.2c-0.3-1-1.1-2.4-2.4-4.3
		c-0.2,0-0.3,0.2-0.3,0.5c-0.6-0.4-1.2-0.5-1.9-0.5c-1.2,0-2.4,0.6-3.6,1.7c-1.2,1.1-1.8,2.2-1.8,3.1V120h-1.5
		c0-0.2-0.2-0.5-0.5-0.8c-0.4,0-0.5,0.3-0.1,1h-19.1V90.6c0-2.3-0.1-4-0.4-5.3c-0.1-0.9-0.2-2.1-0.4-3.6c-1.1-3.6-2.6-5.4-4.5-5.4
		c-5,0-7.5,3.4-7.5,10.3l1.1,26c0,0.8-0.1,1.5-0.2,1.9c-0.8,2.3-0.7,4,0.2,4.9h-20.1L891.1,56c-0.1,0,1.3,0,4.2,0
		c0.3,0,0.4,0.1,0.4,0.3c0,0.2,0.1,0.3,0.3,0.3c0.1,0,0.4-0.1,0.7-0.4c0.4-0.1,5.3-0.1,14.8-0.1c-0.3,0.4-0.4,2-0.4,4.8
		c0.1,0.1,0.2,0.4,0.4,0.7c6-4.2,11-6.4,14.9-6.4c2.6,0,5.1,0.5,7.3,1.6c1.3,0.6,2.8,1.6,4.5,2.9c1.3,1.1,2.2,1.6,2.7,1.6
		c0.6,0,1.4-0.5,2.4-1.4c0.6-0.6,1.2-1.1,1.8-1.6c1.9-1.3,3.3-2,4.2-2.1c3.9-0.8,6.6-1.2,8.1-1.2c4.2,0,7.7,0.7,10.3,2
		c2.6,1.3,4.9,3.6,6.7,6.9c0.1,0.5,0.2,1.1,0.3,1.8c0.5,0.4,0.9,1.2,1.2,2.3c0.3,1.1,0.5,2.2,0.5,3.3v2.5c0.1,0.1,0.3,0.2,0.5,0.2
		V119.9z M893.7,63.5V62h-0.4v1.5H893.7z M894.3,85.8l-0.4-0.4l-0.2,0.3l0.3,0.3L894.3,85.8z M895.5,105.2l-0.3-0.1l-0.3,0.6
		l0.3,0.1L895.5,105.2z M896.3,75.1l-1.1-0.2h0.6v0.8C896,75.6,896.1,75.4,896.3,75.1z M899.2,118.9h-0.4v-3.1h0.4V118.9z
		 M901.8,58.6c-0.1,0-0.3-0.1-0.6-0.2c-0.4-0.1-0.6-0.2-0.6-0.2c0,0.7-0.2,1.4-0.5,2c0.1,0.1,0.4,0.2,0.6,0.3
		C900.9,59.8,901.3,59.1,901.8,58.6z M901,103.7l-0.3-0.1l-0.3,0.6l0.3,0.2L901,103.7z M902,81.5c0-0.4-0.3-0.6-1-0.6v1
		C901.5,81.8,901.8,81.7,902,81.5z M902.4,85.2l-0.3-1.3h-0.4l0.3,1.3H902.4z M902.4,85.5H902l-0.3,0.8l0.4,0.2L902.4,85.5z
		 M904.4,90.2v-0.7H904v0.7H904.4z M905.2,110.1l-0.1-0.4l-0.6,0.3v0.4L905.2,110.1z M906,107.6l-0.3-0.1l-0.3,0.6l0.3,0.2
		L906,107.6z M906.8,99.7h-1.1v0.8C905.8,100.6,906.2,100.3,906.8,99.7z M907.5,98.8c0-1.1-0.1-1.7-0.4-2c0,0.9,0,1.3,0,1.3
		c-0.1-0.1-0.2-0.1-0.4,0.1c-0.2,0.2-0.3,0.4-0.3,0.6C906.5,98.8,906.9,98.8,907.5,98.8z M907.2,106.3v-0.5h-0.6v0.5H907.2z
		 M907.6,95.6l-0.3-0.2l-0.6,1l0.3,0.2L907.6,95.6z M909.3,104.9c-0.4,0-0.8,0.4-1.5,1.2h1C908.8,105.8,909,105.4,909.3,104.9z
		 M908.9,113.3l-0.4-0.4l-0.2,0.3l0.3,0.3L908.9,113.3z M910.5,89.8l-0.3-0.1l-0.4,0.6l0.4,0.2L910.5,89.8z M910.8,102.1h-0.4
		l-0.3,1.2h0.4L910.8,102.1z M924.6,98.1l-0.3-0.1l-0.3,0.6l0.3,0.2L924.6,98.1z M925.6,108.6l-0.3-0.1l-0.3,0.6l0.3,0.1
		L925.6,108.6z M928,113.6c0-1.3-0.1-2.2-0.4-2.8c0,0.3-0.1,0.8-0.2,1.6c-0.1,0.8-0.2,1.3-0.2,1.5C927.7,113.9,928,113.8,928,113.6z
		 M931,112c-0.8-0.4-1.4-0.5-1.8-0.3c0.6,1.2,0.9,1.7,1,1.5v-1.3C930.5,112.3,930.8,112.3,931,112z M931.5,114.5v-2h-0.5v2H931.5z
		 M932.2,112.3v-1h-0.4v1H932.2z M934.1,115.5c-0.1-1.9-0.1-2.6-0.2-2c-0.5,0-0.7,0.2-0.7,0.7C933.2,114.8,933.5,115.2,934.1,115.5z
		 M938.1,82.7c-0.2,0-0.4,0.1-0.7,0.3c-0.2,0.2-0.4,0.3-0.5,0.3c-0.1-0.2-0.2-0.4-0.3-0.5c-0.1,0.4-0.2,0.9-0.3,1.5
		c-0.1,0.6-0.4,0.9-0.9,1c0.5,0,0.9-0.1,1.2-0.4c0.1,0.4,0.5,0.7,1.2,1C937.6,84.9,937.7,83.9,938.1,82.7z M937.8,100.8v-0.5
		l-1.5-0.2v0.4L937.8,100.8z M936.9,98.2v-1h-0.4v1H936.9z M937.4,77.9v-0.7H937v0.7H937.4z M938.2,76.5l-0.3-0.2l-0.6,0.6l0.2,0.2
		L938.2,76.5z M939.4,86.6c-0.1,0-0.2,0.1-0.4,0.2c-0.2,0.1-0.4,0.2-0.7,0.2c-0.2,0-0.4-0.4-0.4-1.2v2.2c0.2,0.1,0.5,0.4,1,0.8
		c0-0.1,0.1-0.5,0.3-1C939.3,87.4,939.4,86.9,939.4,86.6z M938.6,109.9v-0.4h-0.6v0.4H938.6z M940.3,73.5l-0.3-0.4l-0.3,0.3l0.4,0.3
		L940.3,73.5z M940.3,76.2l-0.3-0.4l-0.3,0.2l0.4,0.4L940.3,76.2z M940,114.8v-1.5h-0.4v1.5H940z M950,60.8v-1h-0.4v1H950z
		 M955.7,79.2v-0.7h-0.4v0.7H955.7z M959.1,92.1h-0.3l-0.3,0.8l0.3,0.1L959.1,92.1z M960.7,89.8l-0.4-0.1l-0.3,0.6l0.4,0.2
		L960.7,89.8z M961.2,113.5l-0.4-0.3l-0.2,0.2l0.3,0.4L961.2,113.5z M961.5,114.4l-0.4-0.4l-0.2,0.3l0.3,0.3L961.5,114.4z M968,90.2
		v-0.7h-0.4v0.7H968z M969.2,64.4V64l-1.2-0.3v0.4L969.2,64.4z M969.6,111.8v-1h-0.4v1H969.6z M970.1,73.3l-0.4-0.2l-0.3,0.7
		l0.4,0.1L970.1,73.3z M970.8,86.5v-1c-0.1,0-0.3,0.2-0.7,0.6C970.2,86.3,970.4,86.4,970.8,86.5z M971.2,99.5l-0.3-0.7l-0.4,0.2
		l0.3,0.5H971.2z M971.7,103.9h-0.4l-0.3,0.8l0.3,0.1L971.7,103.9z M971.8,91.4v-0.4h-0.7v0.4H971.8z M972.4,64.1v-0.4h-0.7v0.4
		H972.4z M973.2,68.6l-0.4-0.4l-0.2,0.3l0.3,0.3L973.2,68.6z M973,78.1v-1h-0.4v1H973z M973.4,63.5c0-0.2-0.1-0.5-0.3-0.7
		c-0.3,0-0.4,0.4-0.4,1.3L973.4,63.5z M974,86.5l-0.6-0.7c-0.3,0-0.4,0.2-0.4,0.7H974z M975.1,90.2v-0.7h-0.5v0.7H975.1z
		 M975.4,73.3v-0.5h-0.6v0.5H975.4z"/>
	<path class="st4" d="M1047.7,76.7l-31,23.4c0.4,0.6,1.4,1.1,3.2,1.5c1.5,0.4,2.8,0.5,3.9,0.5c2.3,0,5.8-1,10.3-3.1
		c4.6-2.1,7.4-3.9,8.5-5.5c0.1,0.1,0.2,1.7,0.5,4.9c0.5,5.7,0.7,8.8,0.6,9.4c0.4,0.4,0.5,0.7,0.5,1v3.9c-3.1,1.4-6.3,2.8-9.4,4.1
		c-4.4,1.8-8,2.7-10.8,2.7c0,0.3-0.2,0.4-0.6,0.4h-7.4c-0.1,0-0.4-0.1-0.8-0.4c0.3,0.3-0.1,0.4-1.1,0.4c-1.7,0-4.7-0.9-9.1-2.7
		c-5.9-2.3-10.6-6.3-14.1-11.8c-3.1-5-4.7-10.4-4.7-16c0-0.1,0.1-0.6,0.2-1.4c0.1-0.8,0.2-1.4,0.2-1.8c0.4-8.2,4.1-15.4,11.1-21.4
		c6.4-5.5,13.2-8.2,20.2-8.2c1.2,0,1.9,0.2,2,0.5c0.3,0,0.6-0.1,0.9-0.3c0.3-0.2,0.6-0.3,0.8-0.3c2,0,4.4,0.4,7.3,1.2
		c3.9,1.1,7.6,3.5,11.1,7.3C1043.6,68.7,1046,72.6,1047.7,76.7z M1005.6,65v-1l-1.1,1H1005.6z M1006.1,62.8
		c-0.1-0.3-0.4-0.7-0.6-1.3c0,0.4-0.2,1-0.6,1.8c0.1,0,0.3-0.1,0.6-0.3C1005.8,62.9,1006,62.8,1006.1,62.8z M1022.9,76.5
		c0-0.2-0.1-0.5-0.3-1c-0.7-0.2-1.8-0.6-3.3-1.1c-1.2-0.4-1.9-0.6-2.1-0.6c-0.8,0-2.1,0.5-4.1,1.6c-1.9,1.1-3.5,2.6-4.6,4.7
		c-1.1,2.1-1.7,4.1-1.7,6c0,0.5,0,1,0.1,1.5c0.4,0.4,0.9,0.6,1.4,0.6c0.2,0,2.7-1.8,7.5-5.3C1020.6,79.4,1022.9,77.3,1022.9,76.5z
		 M1007.8,63.5v-1.1h-0.4v1.1H1007.8z M1025.4,115.5l-0.3,0.7l-0.3-0.1l0.3-0.7L1025.4,115.5z M1029.4,64.1l-0.4-0.4l-0.2,0.2
		l0.3,0.4L1029.4,64.1z M1039.2,110c0-0.2-0.2-0.5-0.6-1c-0.1,0.1-0.1,0.5-0.1,1.3C1038.6,110.3,1038.8,110.2,1039.2,110z"/>
</g>
</svg>
